<?xml version="1.0" encoding="utf-8"?>
<!-- Generator: Adobe Illustrator 26.1.0, SVG Export Plug-In . SVG Version: 6.00 Build 0)  -->
<svg version="1.1" xmlns="http://www.w3.org/2000/svg" xmlns:xlink="http://www.w3.org/1999/xlink" x="0px" y="0px"
	 viewBox="0 0 512 512" style="enable-background:new 0 0 512 512;" xml:space="preserve">
<style type="text/css">
	.st0{clip-path:url(#SVGID_00000086660766081127536930000006709556253943914890_);fill:#FF0000;}
	.st1{clip-path:url(#SVGID_00000086660766081127536930000006709556253943914890_);fill:#F4860A;}
	.st2{clip-path:url(#SVGID_00000086660766081127536930000006709556253943914890_);fill:#F1E405;}
	.st3{clip-path:url(#SVGID_00000086660766081127536930000006709556253943914890_);fill:#057A25;}
	.st4{clip-path:url(#SVGID_00000086660766081127536930000006709556253943914890_);fill:#024BF3;}
	.st5{clip-path:url(#SVGID_00000086660766081127536930000006709556253943914890_);fill:#700983;}
</style>
<g id="Layer_2">
</g>
<g id="Layer_1">
	<g>
		<defs>
			<path id="SVGID_1_" d="M320,336c0,8.8-7.2,16-16,16h-96c-8.8,0-16-7.2-16-16v-48H0v144c0,25.6,22.4,48,48,48h416
				c25.6,0,48-22.4,48-48V288H320V336z M464,96h-80V48c0-25.6-22.4-48-48-48H176c-25.6,0-48,22.4-48,48v48H48c-25.6,0-48,22.4-48,48
				v112h512V144C512,118.4,489.6,96,464,96z M336,96H176V48h160V96z"/>
		</defs>
		<clipPath id="SVGID_00000093889485516055823060000013907365526024474559_">
			<use xlink:href="#SVGID_1_"  style="overflow:visible;"/>
		</clipPath>
		
			<rect x="-64" style="clip-path:url(#SVGID_00000093889485516055823060000013907365526024474559_);fill:#FF0000;" width="640" height="86.4"/>
		
			<rect x="-64" y="86.4" style="clip-path:url(#SVGID_00000093889485516055823060000013907365526024474559_);fill:#F4860A;" width="640" height="86.4"/>
		
			<rect x="-64" y="172.7" style="clip-path:url(#SVGID_00000093889485516055823060000013907365526024474559_);fill:#F1E405;" width="640" height="86.4"/>
		
			<rect x="-64" y="257" style="clip-path:url(#SVGID_00000093889485516055823060000013907365526024474559_);fill:#057A25;" width="640" height="86.4"/>
		
			<rect x="-64" y="341.3" style="clip-path:url(#SVGID_00000093889485516055823060000013907365526024474559_);fill:#024BF3;" width="640" height="86.4"/>
		
			<rect x="-64" y="425.6" style="clip-path:url(#SVGID_00000093889485516055823060000013907365526024474559_);fill:#700983;" width="640" height="86.4"/>
	</g>
</g>
</svg>
