<?xml version="1.0" encoding="utf-8"?>
<!-- Generator: Adobe Illustrator 26.1.0, SVG Export Plug-In . SVG Version: 6.00 Build 0)  -->
<svg version="1.1" xmlns="http://www.w3.org/2000/svg" xmlns:xlink="http://www.w3.org/1999/xlink" x="0px" y="0px"
	 viewBox="0 0 640 512" style="enable-background:new 0 0 640 512;" xml:space="preserve">
<style type="text/css">
	.st0{clip-path:url(#SVGID_00000046334286402906257500000013298862725156485294_);fill:#FF0000;}
	.st1{clip-path:url(#SVGID_00000046334286402906257500000013298862725156485294_);fill:#F4860A;}
	.st2{clip-path:url(#SVGID_00000046334286402906257500000013298862725156485294_);fill:#F1E405;}
	.st3{clip-path:url(#SVGID_00000046334286402906257500000013298862725156485294_);fill:#057A25;}
	.st4{clip-path:url(#SVGID_00000046334286402906257500000013298862725156485294_);fill:#024BF3;}
	.st5{clip-path:url(#SVGID_00000046334286402906257500000013298862725156485294_);fill:#700983;}
</style>
<g id="Layer_2">
</g>
<g id="Layer_3">
</g>
<g id="Layer_1">
	<g>
		<defs>
			<path id="SVGID_1_" d="M184,88c0,30.9-25.1,56-56,56c-30.9,0-56-25.1-56-56c0-30.9,25.1-56,56-56C158.9,32,184,57.1,184,88z
				 M208.4,196.3C178.7,222.7,160,261.2,160,304c0,34.3,11.1,65.8,32,90.5V416c0,17.7-14.3,32-32,32H96c-17.7,0-32-14.3-32-32v-26.8
				C26.2,371.2,0,332.7,0,288c0-61.9,50.1-112,112-112h32C167.1,176,190.2,183.5,208.4,196.3L208.4,196.3z M64,245.7
				c-10,11.2-16,26.1-16,42.3s6,31.1,16,42.3V245.7z M448,416v-21.5c20-24.7,32-56.2,32-90.5c0-42.8-18.7-81.3-48.4-107.7
				C449.8,183.5,472,176,496,176h32c61.9,0,112,50.1,112,112c0,44.7-26.2,83.2-64,101.2V416c0,17.7-14.3,32-32,32h-64
				C462.3,448,448,433.7,448,416z M576,330.3c9.1-11.2,16-26.1,16-42.3s-6.9-31.1-16-42.3V330.3z M568,88c0,30.9-25.1,56-56,56
				s-56-25.1-56-56c0-30.9,25.1-56,56-56S568,57.1,568,88z M256,96c0-35.3,28.7-64,64-64s64,28.7,64,64c0,35.3-28.7,64-64,64
				S256,131.3,256,96z M448,304c0,44.7-26.2,83.2-64,101.2V448c0,17.7-14.3,32-32,32h-64c-17.7,0-32-14.3-32-32v-42.8
				c-37.8-18-64-56.5-64-101.2c0-61.9,50.1-112,112-112h32C397.9,192,448,242.1,448,304z M256,346.3v-84.6c-10,11.2-16,26.1-16,42.3
				S246,335.1,256,346.3z M384,261.7v84.6c9.1-11.3,16-26.1,16-42.3S393.1,272.9,384,261.7z"/>
		</defs>
		<clipPath id="SVGID_00000060736107305283771920000011060218832409394062_">
			<use xlink:href="#SVGID_1_"  style="overflow:visible;"/>
		</clipPath>
		
			<rect y="32" style="clip-path:url(#SVGID_00000060736107305283771920000011060218832409394062_);fill:#FF0000;" width="640" height="75.6"/>
		
			<rect y="107.6" style="clip-path:url(#SVGID_00000060736107305283771920000011060218832409394062_);fill:#F4860A;" width="640" height="75.6"/>
		
			<rect y="183.1" style="clip-path:url(#SVGID_00000060736107305283771920000011060218832409394062_);fill:#F1E405;" width="640" height="75.6"/>
		
			<rect y="256.9" style="clip-path:url(#SVGID_00000060736107305283771920000011060218832409394062_);fill:#057A25;" width="640" height="75.6"/>
		
			<rect y="330.7" style="clip-path:url(#SVGID_00000060736107305283771920000011060218832409394062_);fill:#024BF3;" width="640" height="75.6"/>
		
			<rect y="404.4" style="clip-path:url(#SVGID_00000060736107305283771920000011060218832409394062_);fill:#700983;" width="640" height="75.6"/>
	</g>
</g>
</svg>
