<svg xmlns="http://www.w3.org/2000/svg" xmlns:xlink="http://www.w3.org/1999/xlink" viewBox="0 0 530.68 342.58"><defs><style>.cls-1,.cls-2,.cls-3,.cls-4{fill:none;}.cls-2{clip-path:url(#clip-path);}.cls-2,.cls-3{clip-rule:evenodd;}.cls-3{clip-path:url(#clip-path-2);}.cls-4{clip-path:url(#clip-path-3);}.cls-5{clip-path:url(#clip-path-4);}.cls-6{fill:red;}.cls-7{fill:#f4860a;}.cls-8{fill:#f1e405;}.cls-9{fill:#057a25;}.cls-10{fill:#024bf3;}.cls-11{fill:#700983;}</style><clipPath id="clip-path"><rect class="cls-1" y="1.14" width="530.67" height="340.31"/></clipPath><clipPath id="clip-path-2"><path class="cls-2" d="M0,1.14H530.68v340.3H0Z"/></clipPath><clipPath id="clip-path-3"><path class="cls-3" d="M0,0H530.68V342.58H0Z"/></clipPath><clipPath id="clip-path-4"><path class="cls-4" d="M149.39,194.56V75.42H112.67L33,201.2l1.42,22.66H113.2V265h36.19V223.86h22v-29.3Zm-80.85,0,41.14-64.19,3.52-6.24v70.43Zm258.59-1.69V147.56q0-18.36-4.3-32.36a66.73,66.73,0,0,0-12.25-23.5,51.86,51.86,0,0,0-19.53-14.18,65.78,65.78,0,0,0-25.78-4.83,64.91,64.91,0,0,0-25.58,4.83A50.79,50.79,0,0,0,220.36,91.7,65.48,65.48,0,0,0,208,115.2q-4.29,14-4.29,32.36v45.31q0,18.34,4.36,32.35a64.8,64.8,0,0,0,12.43,23.37,50.45,50.45,0,0,0,19.4,14.33,71.14,71.14,0,0,0,51.43,0,50.48,50.48,0,0,0,19.41-14.33q7.93-9.37,12.17-23.37T327.13,192.87Zm-87-15.62V141.83a88.5,88.5,0,0,1,1.63-18.22,34.08,34.08,0,0,1,5-12.52,20.2,20.2,0,0,1,7.75-6.82A23.88,23.88,0,0,1,265.27,102a25.88,25.88,0,0,1,9.82,1.77,18,18,0,0,1,7.36,5.39,30.41,30.41,0,0,1,5.93,12.19,79.2,79.2,0,0,1,2.28,18.28Zm50.52,21.08A89.56,89.56,0,0,1,289,216.62a36.92,36.92,0,0,1-4.87,12.71,19.74,19.74,0,0,1-7.82,7,24.52,24.52,0,0,1-10.81,2.26A23.78,23.78,0,0,1,254.08,236a20.55,20.55,0,0,1-7.94-7.95A36.24,36.24,0,0,1,241.91,217a81,81,0,0,1-1.77-15.23l50.52-37.5v34.11Zm178.77-3.77V75.42H432.71L353,201.2l1.42,22.66h78.78V265h36.19V223.86h22v-29.3Zm-80.85,0,41.14-64.19,3.52-6.24v70.43Z"/></clipPath></defs><g id="Layer_1" data-name="Layer 1"><g class="cls-5"><rect class="cls-6" width="530.68" height="101.98"/><rect class="cls-7" y="101.98" width="530.68" height="34.98"/><rect class="cls-8" y="136.96" width="530.68" height="34.33"/><rect class="cls-9" y="170.15" width="530.68" height="33.39"/><rect class="cls-10" y="203.54" width="530.68" height="28.42"/><rect class="cls-11" y="231.96" width="530.68" height="37.25"/></g></g></svg>