<?xml version="1.0" encoding="utf-8"?>
<!-- Generator: Adobe Illustrator 26.1.0, SVG Export Plug-In . SVG Version: 6.00 Build 0)  -->
<svg version="1.1" xmlns="http://www.w3.org/2000/svg" xmlns:xlink="http://www.w3.org/1999/xlink" x="0px" y="0px"
	 viewBox="0 0 640 512" style="enable-background:new 0 0 640 512;" xml:space="preserve">
<style type="text/css">
	.st0{clip-path:url(#SVGID_00000005972978183656875020000010691013530756457355_);fill:#FF0000;}
	.st1{clip-path:url(#SVGID_00000005972978183656875020000010691013530756457355_);fill:#F4860A;}
	.st2{clip-path:url(#SVGID_00000005972978183656875020000010691013530756457355_);fill:#F1E405;}
	.st3{clip-path:url(#SVGID_00000005972978183656875020000010691013530756457355_);fill:#057A25;}
	.st4{clip-path:url(#SVGID_00000005972978183656875020000010691013530756457355_);fill:#024BF3;}
	.st5{clip-path:url(#SVGID_00000005972978183656875020000010691013530756457355_);fill:#700983;}
</style>
<g id="Layer_2">
</g>
<g id="Layer_1">
	<g>
		<defs>
			<path id="SVGID_1_" d="M623.1,136.9L340.4,35.7c-13.7-4.9-28.7-4.9-42.4,0L16,136.9C6.4,140.4,0,149.6,0,160s6.4,19.6,16,23.1
				l60,21.5c-11.9,15.8-20.3,34.2-24.5,54C40,263.4,32,274.8,32,288c0,10,4.8,18.5,11.9,24.4l-24.8,149C17.5,471.1,25,480,34.9,480
				h58.2c9.9,0,17.4-8.9,15.8-18.6l-24.8-149C91.2,306.5,96,297.1,96,288c0-10.3-5.2-19-12.7-24.9c4.3-17.8,12.9-33.8,24.9-47
				l190.6,68.2c13.7,4.9,28.7,4.9,42.4,0L624,183.1c9.6-3.5,16-12.7,16-23.1S633.6,140.4,623.1,136.9z M351.1,314.4
				c-9.4,3.7-20.2,5.6-31.1,5.6c-10.9,0-21.7-1.9-32-5.6l-145.2-51.9L128,405.3c0,41.3,85.1,74.7,192,74.7
				c105.1,0,192-33.4,192-74.7l-14.8-142.9L351.1,314.4z"/>
		</defs>
		<clipPath id="SVGID_00000021822404516766620320000006447742148977485453_">
			<use xlink:href="#SVGID_1_"  style="overflow:visible;"/>
		</clipPath>
		
			<rect y="32.6" style="clip-path:url(#SVGID_00000021822404516766620320000006447742148977485453_);fill:#FF0000;" width="640" height="75.5"/>
		
			<rect y="108.2" style="clip-path:url(#SVGID_00000021822404516766620320000006447742148977485453_);fill:#F4860A;" width="640" height="75.5"/>
		
			<rect y="183.7" style="clip-path:url(#SVGID_00000021822404516766620320000006447742148977485453_);fill:#F1E405;" width="640" height="75.5"/>
		
			<rect y="257.4" style="clip-path:url(#SVGID_00000021822404516766620320000006447742148977485453_);fill:#057A25;" width="640" height="75.5"/>
		
			<rect y="331.1" style="clip-path:url(#SVGID_00000021822404516766620320000006447742148977485453_);fill:#024BF3;" width="640" height="75.5"/>
		
			<rect y="404.8" style="clip-path:url(#SVGID_00000021822404516766620320000006447742148977485453_);fill:#700983;" width="640" height="75.5"/>
	</g>
</g>
</svg>
