<?xml version="1.0" encoding="utf-8"?>
<!-- Generator: Adobe Illustrator 26.1.0, SVG Export Plug-In . SVG Version: 6.00 Build 0)  -->
<svg version="1.1" xmlns="http://www.w3.org/2000/svg" xmlns:xlink="http://www.w3.org/1999/xlink" x="0px" y="0px"
	 viewBox="0 0 640 512" style="enable-background:new 0 0 640 512;" xml:space="preserve">
<style type="text/css">
	.st0{clip-path:url(#SVGID_00000169539144589513971690000012509274352896148650_);fill:#FF0000;}
	.st1{clip-path:url(#SVGID_00000169539144589513971690000012509274352896148650_);fill:#F4860A;}
	.st2{clip-path:url(#SVGID_00000169539144589513971690000012509274352896148650_);fill:#F1E405;}
	.st3{clip-path:url(#SVGID_00000169539144589513971690000012509274352896148650_);fill:#057A25;}
	.st4{clip-path:url(#SVGID_00000169539144589513971690000012509274352896148650_);fill:#024BF3;}
	.st5{clip-path:url(#SVGID_00000169539144589513971690000012509274352896148650_);fill:#700983;}
</style>
<g id="Layer_2">
</g>
<g id="Layer_1">
	<g>
		<defs>
			<path id="SVGID_1_" d="M488,191.1H336l0,51.9c0,37.7-27.1,72-64.6,75.8c-43.1,4.3-79.4-29.4-79.4-71.6V126.4l-24.5,14.7
				C123.2,167.8,96,215.7,96,267.5l-80,46.3c-15.2,8.8-20.6,28.4-11.8,43.6l80,138.6c8.9,15.2,28.5,20.5,43.8,11.8L231.4,448H368
				c35.2,0,64-28.8,64-64c26.5,0,48-21.5,48-48v-48h8c13.2,0,24-10.8,24-24l0-48C512,202.7,501.3,191.1,488,191.1z M635.7,154.5
				l-80-138.6C546.9,0.6,527.2-4.6,512,4.1L408.6,63.9H346c-37.9,0-74.9,10.6-107.1,30.6c-9.2,5.9-14.9,16.1-14.9,27.1l0,126.4
				c0,22.1,17.9,40,40,40c22.1,0,40-17.9,40-40v-88.9h184c30.9,0,56,25.1,56,56v28.5l80-46.2C639.3,189.4,644.5,169.8,635.7,154.5z"
				/>
		</defs>
		<clipPath id="SVGID_00000052086446647561848920000006216266706866986642_">
			<use xlink:href="#SVGID_1_"  style="overflow:visible;"/>
		</clipPath>
		
			<rect y="-0.1" style="clip-path:url(#SVGID_00000052086446647561848920000006216266706866986642_);fill:#FF0000;" width="640" height="86.4"/>
		
			<rect y="86.3" style="clip-path:url(#SVGID_00000052086446647561848920000006216266706866986642_);fill:#F4860A;" width="640" height="86.4"/>
		
			<rect y="172.7" style="clip-path:url(#SVGID_00000052086446647561848920000006216266706866986642_);fill:#F1E405;" width="640" height="86.4"/>
		
			<rect y="257" style="clip-path:url(#SVGID_00000052086446647561848920000006216266706866986642_);fill:#057A25;" width="640" height="86.4"/>
		
			<rect y="341.3" style="clip-path:url(#SVGID_00000052086446647561848920000006216266706866986642_);fill:#024BF3;" width="640" height="86.4"/>
		
			<rect y="425.6" style="clip-path:url(#SVGID_00000052086446647561848920000006216266706866986642_);fill:#700983;" width="640" height="86.4"/>
	</g>
</g>
</svg>
